# xmcd CD database file
#
# Track frame offsets:
#	150
#	11371
#	19161
#	31215
#	38188
#	45291
#	65460
#	74363
#	82389
#	95925
#	112627
#	122907
#	134051
#	143495
#	154421
#
# Disc length: 2285 seconds
#
# Revision: 0
# Processed by: cddbd v1.5.2PL0 Copyright (c) Steve Scherf et al.
# Submitted via: CDex 1.51
#
DISCID=cd08eb0f
DTITLE=Rusty McHugh - We All Love A Woman With A Big Ol' Ass!!
DYEAR=2003
DGENRE=Country
TTITLE0=Don't Wait Up For the Shrimp Mama, Daddy's Coming Home With The Crabs
TTITLE1=Too Sunburnt To Screw
TTITLE2=I Want A Girl Named Lola
TTITLE3=Red Snapper Salve
TTITLE4=I Feel Like Shit All The Time
TTITLE5=On The Bus Back To Birmingham
TTITLE6=I Love A Woman With A Big Ol' Ass
TTITLE7=Me And My Wild Hair Have Had A Falling Out
TTITLE8=The Cows Come Home
TTITLE9=Crankcase
TTITLE10=Louisianna Lydia and Jambalaya Joe
TTITLE11=Maybe We Can Stay Another Day
TTITLE12=Bushwhacher Boogie
TTITLE13=Audience comments w/ Jack Robertson
TTITLE14=Hidden Track
EXTD=YEAR: 2003
EXTT0=
EXTT1=
EXTT2=
EXTT3=
EXTT4=
EXTT5=
EXTT6=
EXTT7=
EXTT8=
EXTT9=
EXTT10=
EXTT11=
EXTT12=
EXTT13=
EXTT14=
PLAYORDER=
